<?xml version="1.0" encoding="UTF-8"?><svg id="Layer_2" xmlns="http://www.w3.org/2000/svg" width="692.77" height="110.76" viewBox="0 0 692.77 110.76"><defs><style>.cls-1{fill:#01009f;}</style></defs><g id="Layer_2-2"><path class="cls-1" d="M45.94,24.2c-5.06,2.42-11.31,5.5-18.44,9.22-6.34,3.87-11.1,7.56-14.4,10.37-2.7,2.29-4.53,4.09-6.34,6.34-1.79,2.22-3.83,4.81-5.19,8.64-.89,2.5-2.28,6.44-1.15,10.37,1.6,5.59,7.47,8.23,10.95,9.8,9.06,4.07,18.03,2.87,26.5,1.73,1.41-.19,5.63-.8,10.95-2.3,5.56-1.57,8.34-2.36,10.95-4.03,3.63-2.33,5.02-4.58,6.91-4.03,1.82,.53,1.63,2.92,4.03,4.61,.52,.37,2.19,1.42,6.34,1.15,3.12-.2,6.42-1.08,13.54-4.9,6.18-3.32,5.95-3.87,12.39-7.2,3.74-1.93,4.13-1.95,8.07-4.03,1.39-.73,3.73-2,6.91-3.46,4.59-2.11,5.32-2.05,5.76-1.73,.79,.58,.71,2.05-.58,8.07-.84,3.91-1.56,6.81-1.73,7.49-.66,2.69-2.08,8.81-2.88,16.13-.36,3.28-.51,6.03-.58,8.07-.06,1.69-.04,3.26,0,6.34,.1,8.53,.33,9.13,.86,9.51,2.02,1.44,7.31-.98,10.08-4.9,1.42-2,1.55-3.43,2.88-12.1,.75-4.9,.32-1.48,1.73-10.37,.8-5.02,1.98-9.98,2.88-14.98,.64-3.55,1.02-5.91,2.88-6.91,1.13-.61,1.72-.13,5.19,0,2.62,.1,5.5,.21,8.64-.58,3.06-.77,4.11-1.83,5.19-1.15,.97,.61,.8,1.89,1.15,4.61,.38,2.92,.86,6.66,2.88,9.22,1.53,1.93,3.5,2.64,5.76,3.46,4.08,1.47,7.66,1.34,10.37,1.15,.49-.03,1.09-.08,1.84-.15,7.07-.66,15.04-2.63,15.45-2.73,0,0,10.37-2.49,21.03-7.78,.45-.22,1.43-.75,1.73-1.73,.05-.17,.25-.82,0-1.15-.69-.91-4.28,1.23-9.22,2.88-4.17,1.39-7.57,1.86-8.93,2.02-3.91,.45-6.94,.22-9.8,0-3.83-.3-5.75-.43-7.49-1.15-1.28-.53-6.21-2.59-7.2-7.2-.79-3.67,1.38-6.84,2.02-7.78,1.67-2.44,4.16-4.06,5.47-4.9,2.67-1.7,4.47-2.08,4.9-3.75,.26-1.04-.07-2.35-.86-3.17-2.68-2.74-10.2,.62-12.68,1.73-3.52,1.57-6.05,3.43-7.2,4.32-.77,.6-1.78,1.57-2.9,2.58-3.01,2.73-3.07,2.96-3.73,3.47-3.94,3.1-10.01,1.65-12.1,1.15-2.51-.6-5.75-1.37-6.63-3.75-.41-1.11-.11-2.06,.86-4.9,1.84-5.37,2.77-8.06,3.17-8.93,1.39-3,1.45-2.43,5.19-9.22,4.47-8.13,3.19-6.34,4.61-8.64,2.09-3.39,3.44-4.97,2.88-5.76-.63-.89-3.2-.06-5.19,.58-6.45,2.08-10.47,5.88-11.52,6.91-1.67,1.64-2.75,3.09-3.46,4.03-2.43,3.27-3.65,6.01-4.61,8.07-2.91,6.23-4.37,9.35-6.34,12.1,0,0-5.21,7.27-13.25,9.8-1.44,.45-2.81,.61-4.03,0-1.7-.85-2.27-2.76-2.3-2.88-.62-2.17,.8-3.35,0-4.61-.67-1.07-2.34-1.32-3.46-1.15-1.26,.19-1.74,.9-3.75,2.59-.27,.23-1.72,1.3-4.61,3.46-3.55,2.64-3.99,2.83-4.32,3.75-.45,1.22-.03,1.7-.58,4.03-.27,1.17-.53,2.26-1.35,2.68-1.08,.55-2.77-.28-3.72-1.24-2.26-2.3-1.93-7.01-.12-10.08,1.05-1.79,2.64-3.1,5.19-5.19,1.61-1.33,2.42-1.99,2.88-2.3,1.87-1.29,2.91-1.63,3.46-2.88,.3-.69,.52-1.79,0-2.3-.53-.52-1.63-.22-2.3,0-7.35,2.4-14.4,8.07-14.4,8.07-4.71,3.78-7.06,5.67-8.07,6.91-2.42,2.99-5.14,6.36-6.34,10.37-.14,.46-.37,1.41-1.15,2.3-1.6,1.82-4.18,1.96-5.47,2.02-12.7,.53-19.16,.79-24.2,0-6.88-1.07-8.55-1.99-9.51-2.59-.6-.38-6.99-4.56-7.2-10.66-.17-4.95,3.92-8.49,12.1-15.56,5.07-4.38,10.02-7.5,14.12-10.08,1.61-1.01,3.38-2.02,6.91-4.03,.15-.09,.14-.08,7.78-3.75,1.22-.58,3.52-1.69,5.47-.86,.29,.12,.52,.22,.76,.46,1.14,1.18-.35,3.09,.4,5.3,.36,1.07,1.3,2.35,2.59,2.59,1.82,.34,3.37-1.56,3.75-2.02,1.19-1.46,1.91-3.73,1.15-5.76-.79-2.13-2.78-3.12-3.46-3.46-5.13-2.56-13.12,.77-24.78,6.34Z"/><path class="cls-1" d="M193.16,19.3c2.52-1.28,1.93-1.32,4.03-2.3,3.14-1.47,5.55-1.89,8.07-2.3,4.18-.69,5.05-.15,5.47,.29,.56,.59,.84,1.54,.58,2.3-.18,.53-.65,1.06-3.75,2.02-2.36,.73-4.46,1.16-6.05,1.44-1.91,.34-1.96,.28-3.46,.58-1.77,.35-3.1,.62-4.61,1.15-1.8,.64-5.32,2.17-7.49,2.88-.27,.09-.87,.28-1.15,0-.29-.29-.07-.95,0-1.15,.64-1.88,4.27-2.82,8.35-4.9Z"/></g><g id="Layer_3"><path class="cls-1" d="M363.13,15.42c-.6-1.94-2.3-4.83-4.61-5.19-1.92-.3-3.18,1.33-10.95,9.8-4.63,5.04-4.64,4.96-5.76,6.34-1.66,2.03-4.64,5.72-7.49,10.95-2.77,5.07-4.15,7.61-5.19,10.95-.78,2.53-1.09,4.41-2.88,5.76-1.55,1.17-4.13,1.88-6.34,1.15-1.94-.64-2.26-1.95-4.61-2.3-1.1-.17-1.96-.02-2.3-.58-.44-.71,.34-1.94,.58-2.3,1.85-2.95,2.67-6.44,4.32-9.51,1.29-2.41,2.6-6.21,2.3-12.1,0,0-.58-9.22-6.91-5.76s-3.46-1.15-3.46-1.15l3.46-6.34s4.03-5.19,4.03-11.52c0-2.25-.43-3.19-1.05-3.47-1.16-.53-2.86,.66-3.56,1.17-14.96,10.8-12.96,8.49-17,12.39-2.77,2.68-6.37,6.35-10.37,10.95-1.54,1.55-7.42,7.56-10.95,13.83-.92,1.64-.69,1.53-2.88,5.76-.64,1.23-1.63,3.11-2.3,5.76-.63,2.45-.37,3.13,0,3.46,.55,.49,1.63,.46,2.3,0,.82-.56,.51-1.39,1.44-2.59,.12-.15,1.22-1.54,1.94-1.29,.84,.28,1.03,2.74,.37,4.75-.3,.9-.58,1.13-1.44,2.59,0,0-1.37,2.32-2.3,4.61-.89,2.19-.58,2.38-1.73,5.76-1.14,3.35-1.7,3.9-2.3,4.03-.81,.18-1.85-.35-2.3-1.15-1.06-1.85,1.26-4.64,.58-5.19-.39-.31-1.41,.36-1.73,.58-3.1,2.09-4.23,5.85-4.9,8.19-.29,1.01-.66,2.56-.86,4.49-.21,2.06-.08,3.15,0,5.76,.17,5.72-.35,5.3,0,7.49,.34,2.12,.86,5.4,3.46,7.49,2.82,2.28,6.46,1.85,7.49,1.73,2.48-.29,4.41-1.28,11.52-7.49,1.06-.93,11.09-9.72,14.69-14.69,1.05-1.45,2.37-2.73,3.17-4.32,.57-1.12,.91-2.15,1.73-2.3,.67-.13,1.14,.43,2.3,1.15,.85,.53,1.9,1.05,3.17,1.44,0,0,6.34,2.3,11.52-3.46,5.19-5.76,2.3,2.88,1.15,6.34s-2.3,13.83-2.3,13.83c0,0-2.88,13.83,2.88,13.25,5.76-.58,12.1-8.64,14.98-13.83,2.88-5.19,0-6.91-1.15-8.07-1.15-1.15-1.15-6.34-.58-9.8,.58-3.46,2.3-12.1,4.03-16.13,1.27-2.97,2.04-2.6,9.8-10.95,2.48-2.67,6.99-7.6,11.81-14.12,.8-1.08,4.37-6,5.37-11.93,.18-1.05,.34-2.52-.18-4.21Zm-62.9,43.34c-3.18,5.66-6.18,9.6-8,12-1.78,2.34-2.85,3.56-5,6-1.6,1.82-4.04,4.5-7,6-1.44,.73-2.51,.93-3,1-1.19,.18-2.22,.08-3,0-.76-.07-1.33-.13-2.06-.35-.75-.22-2.06-.61-2.94-1.65-.24-.28-.88-1.12-1-3-.15-2.23,.55-4.06,4-11,.63-1.26,.72-1.43,1-2,2.6-5.25,3.53-8.38,5-12,4.12-10.14,6.55-9.53,7-15,.19-2.34-.11-4.18,1-7,.65-1.66,1.77-3.13,4-6,3.06-3.95,5.38-6.36,6-7,3.47-3.57,5.27-5.43,6-5,1.17,.68-.96,6.88-3,11-.66,1.34-.4,.61-4,7-1.13,2.01-1.82,3.26-3,5-1.65,2.43-1.94,2.4-3,4-2.67,4.01-4.18,9.22-3,10,.21,.14,.5,.08,1,0,1.04-.18,1.74-.77,2-1,3.43-2.98,5-5,5-5,2.4-3.07,3.6-4.6,4-5,1.78-1.81,5.93-5.19,8-4,1.85,1.07,1.23,5.38,1,7-.3,2.09-.91,3.66-3,8-1.94,4.04-2.91,6.06-4,8Z"/><path class="cls-1" d="M357.92,56.18c-1.56,1.73-4.29,4.98-7.75,11.24-3.6,6.5-5.39,9.75-5.76,13.25-.19,1.8-1.02,9.66,3.46,12.68,3.86,2.61,11.08,1.22,14.98-2.3,1.83-1.65,3.28-4.07,5.76-4.03,1.28,.02,2.02,.68,2.88,1.15,4.92,2.69,12.48-1.45,16.13-3.46,.87-.48,5.15-2.88,8.64-7.49,2.31-3.05,1.85-3.86,1.73-4.03-.5-.71-2.01-.1-4.03,0-2.64,.13-7.01-.57-8.64-2.88-1.75-2.47,.86-5.05,1.15-13.25,.12-3.25,.23-6.29-1.15-6.91-2.19-.99-6.78,4.73-8.07,6.34-5.4,6.74-8.07,13.25-8.07,13.25-.95,2.33-2.07,5.59-4.03,5.76-.82,.07-1.52-.43-1.73-.58-.86-.62-1.63-1.82-1.73-5.19-.11-3.77-.26-8.72,2.88-10.95,1.7-1.21,2.44-.25,4.61-1.73,2.34-1.59,3.28-3.92,4.03-5.76,.7-1.71,1.22-3.04,.58-4.03-.73-1.13-2.51-1.15-2.88-1.15-1.85-.02-3.56,.89-9.22,6.34-1.99,1.91-2.98,2.87-3.77,3.75Z"/><path class="cls-1" d="M383.01,17.28c-1.72,2.98-1.27,4.3-1.15,4.61,.48,1.24,1.75,2.06,2.88,2.3,.8,.17,1.69-.08,3.46-.58,1.82-.51,1.78-.74,3.46-1.15,1.18-.29,1.53-.26,1.97-.63,.83-.7,.66-1.72,.91-2.83,.66-2.86,3.32-2.61,4.61-5.76,.21-.51,1.17-2.84,0-4.61-1.08-1.63-3.28-1.72-3.46-1.73-1.45-.04-2.4,.64-5.76,3.46-4.95,4.15-5.97,5.28-6.91,6.91Z"/></g><g id="Layer_4"><path class="cls-1" d="M472.9,35.72c8.06-.66,13.46-1.08,14.4-1.15,17.45-1.4,36.65-8.95,38.08-5.81,.28,.61-.6,1.77-2.36,4.08-3.22,4.24-7.03,6.32-8.93,7.2-1.58,.74-3.29,1.17-6.63,2.02-9.01,2.27-10.87,2.27-14.4,4.03-1.15,.58-2.88,1.73-4.61,5.19s-4.03,8.64-5.76,12.68c-.83,1.93-2.25,4.27-3.19,7.83-.7,2.64-.64,3.82-.27,4.85,.75,2.06,2.31,2.3,2.88,4.03,.66,2.03-.68,4.16-1.73,5.76-3.08,4.73-9.95,10.79-14.4,8.64-1.81-.87-2.65-2.82-2.88-3.46,0,0-.61-1.66,.58-8.07,1.8-8.4,4.89-13.82,7.49-17.29,3.32-4.43,5.81-9.47,9.22-13.83,1.01-1.29,1.97-2.45,1.58-3.31-.91-2-8.3-.5-18.29,1.58-1.88,.39-10.62,2.24-21.32,3.46-3.09,.35-6.39,.66-6.91-.58-.45-1.05,1.37-2.62,4.61-5.76,8.87-8.59,7.52-8.67,9.8-9.8,1.8-.89,2.18-.61,16.13-1.73,2.71-.22,.62-.06,6.91-.58Z"/><path class="cls-1" d="M537.43,20.74c-1.08,1.37-2.95,3.73-2.3,4.61,.49,.68,2.26,.18,2.88,0,1.81-.52,3.15-1.49,5.76-4.03,3.84-3.73,3.37-3.97,5.19-5.19,2.3-1.54,3.95-1.77,4.03-2.88,.07-.97-1.11-2.06-2.3-2.3-1.36-.27-2.46,.6-4.61,2.3-6.2,4.91-7.11,5.55-8.64,7.49Z"/><path class="cls-1" d="M496.52,63.95c-2.98,5.22-4.76,8.35-5.76,12.68-.91,3.94-2.09,9.06,.58,11.52,3.08,2.83,9.37,.39,10.37,0,4.28-1.66,7.96-5.18,10.37-7.49,2.64-2.52,4.02-4.37,5.76-4.03,1.64,.32,1.6,2.19,4.03,3.46,2.32,1.21,4.78,.76,5.76,.58,1.55-.28,2.45-.81,5.76-2.88,4.93-3.09,7.39-4.63,8.07-5.19,3.78-3.12,5.27-5.67,6.34-5.19,.92,.42,.05,2.44,1.15,4.61,1.26,2.49,4.44,3.84,6.91,4.03,4.14,.32,7.91-2.49,13.83-6.91,2.41-1.8,4.45-3.58,5.76-2.88,1.05,.56,.48,2.1,1.73,4.03,1.58,2.46,4.54,3.17,5.76,3.46,3.03,.73,5.52,.01,7.49-.58,2.76-.83,4.76-2.1,8.64-4.61,4.99-3.22,5.27-3.98,6.91-4.03,2.94-.09,4.16,2.31,8.35,4.9,0,0,3.01,1.86,10.08,3.75,11.59,3.09,26.28-2.11,49.55-10.37,.57-.2,4.95-1.77,10.37-4.61,2.93-1.53,8.71-4.76,8.4-5.47-.24-.55-4.02,.64-6.67,1.44,0,0-13.01,3.94-28.23,6.91-5.01,.98-15,2.69-22.47,.58-2.89-.82-5.18-2.14-6.34-2.88-2.96-1.89-5.35-3.43-5.76-5.76-.34-1.93,.97-2.7,6.05-10.08,0,0,1.51-2.2,4.9-8.35,1.63-2.97,2.32-4.44,1.73-5.76-.9-2.01-4.17-2.27-4.61-2.3-1.37-.11-3.78,.04-9.22,4.03-1.39,1.02-5.09,3.84-9.22,8.64-.65,.76-4.1,4.82-6.34,9.8-.68,1.51-1.05,2.67-1.15,4.03-.21,2.83,.94,3.77,.58,5.19-.88,3.41-9.66,6.09-12.68,2.88-2.52-2.68-.23-8.64,0-9.22,.22-.57,2.27-5.6,4.61-9.22,.25-.39,.94-1.43,.58-2.3-.36-.89-1.6-1.13-1.73-1.15-1.59-.28-3.05,.9-4.61,2.3-3.93,3.53-5.76,5.76-5.76,5.76-3.06,3.72-4.59,5.58-6.34,8.07-1.87,2.65-3.4,5.09-6.09,6.84-.61,.39-1.93,1.18-3.71,1.23-.7,.02-1.89,.05-2.71-.65-.59-.51-1.08-1.49-.75-4.53,.26-2.36,.83-4.38,2.88-9.8,.58-1.54,1.09-3.1,1.73-4.61,1.4-3.32,2.39-4.86,1.73-5.76-.51-.7-1.73-.62-2.3-.58-2.23,.16-3.92,1.56-6.34,4.03-3.48,3.56-4.9,5.47-4.9,5.47-7.05,9.52-6.47,10.04-8.93,12.39-3.68,3.52-9.95,7.13-12.68,5.19-2.49-1.77-1.36-7.59-1.15-8.64,1.09-5.6,4.69-8.81,3.46-10.37-.52-.66-1.59-.61-2.3-.58-2.11,.1-3.66,1.44-7.49,5.76-3.09,3.49-4.64,5.24-5.76,6.91-1.96,2.92-1.66,3.24-4.61,8.07-2.68,4.39-4.09,6.05-6.14,6.71-.53,.17-1.94,.63-3.66,.2,0,0-1.34-.34-2.3-1.15-1.86-1.56-2.21-5.34-.58-9.22,2.12-6.41,4.48-10.86,6.34-13.83,.77-1.22,2.26-3.5,1.73-4.03-.57-.57-3.17,1.16-4.03,1.73-1.82,1.21-3.22,2.5-5.19,4.61-1.61,1.73-3.51,3.79-5.76,6.91-.52,.73-2.1,2.95-4.03,6.34Z"/></g></svg>