<?xml version="1.0" encoding="UTF-8"?><svg id="Layer_2" xmlns="http://www.w3.org/2000/svg" width="74.48" height="64.78" viewBox="0 0 74.48 64.78"><defs><style>.cls-1{fill:#01009f;}</style></defs><g id="Layer_7"><path class="cls-1" d="M64.1,50.39c-1.44,.77-3.09,.86-4.05,.9-12.7,.53-19.16,.79-24.2,0-6.88-1.07-8.55-1.99-9.51-2.59-.6-.38-6.99-4.56-7.2-10.66-.17-4.95,3.92-8.49,12.1-15.56,5.07-4.38,10.02-7.5,14.12-10.08,1.61-1.01,3.38-2.02,6.91-4.03,.15-.09,.14-.08,7.78-3.75,1.22-.58,3.52-1.69,5.47-.86,.29,.12,.52,.22,.76,.46,1.14,1.18-.35,3.09,.4,5.3,.36,1.07,1.3,2.35,2.59,2.59,1.82,.34,3.37-1.56,3.75-2.02,1.19-1.46,1.91-3.73,1.15-5.76-.79-2.13-2.78-3.12-3.46-3.46-5.13-2.56-13.11,.77-24.78,6.34-5.06,2.42-11.31,5.5-18.44,9.22-6.34,3.87-11.1,7.56-14.4,10.37-2.7,2.29-4.53,4.09-6.34,6.34-1.79,2.22-3.83,4.81-5.19,8.64-.89,2.5-2.28,6.44-1.15,10.37,1.6,5.59,7.47,8.23,10.95,9.8,9.06,4.07,18.03,2.87,26.5,1.73,1.41-.19,5.63-.8,10.95-2.3,5.56-1.57,8.34-2.36,10.95-4.03,2.45-1.57,8.29-6.88,7.79-7.6-.39-.56-2.46,.23-3.46,.65Z"/></g></svg>