<?xml version="1.0" encoding="UTF-8"?><svg id="Layer_2" xmlns="http://www.w3.org/2000/svg" width="79.6mm" height="79.69mm" viewBox="0 0 225.63 225.91"><defs><style>.cls-1{fill:#fff;}.cls-2{fill:#2e3192;}</style></defs><g id="Layer_5"><g><rect class="cls-2" width="225.63" height="225.63" rx="18.88" ry="18.88"/><path class="cls-1" d="M190.55,33.49c-9.46-.8-17.33-.44-22.98,.09-12.01,1.13-20.55,2.03-28.93,7.99-5.05,3.59-8.03,7.59-9.54,9.64-2.42,3.3-6.12,9.24-8.84,21.42-1.6,7.17-2.25,13.73-2.31,31.12-.05,13,.27,20.06,.47,30.06,.24,11.72,.08,15.94-.08,38.7-.09,12.66-.18,30.84-.15,53.4h36.18v-94.46c-.1-12.67-.16-23-.27-34.54-.07-7.64-.2-18.45,6-24.6,1.98-1.96,4.36-3.27,4.36-3.27,1.86-.93,4.85-2.28,14.15-2.47,2.93-.06,6.87-.02,11.55,.38,.13-11.15,.26-22.31,.4-33.46Z"/><rect class="cls-1" x="94.13" y="102.93" width="96.42" height="32.53"/></g></g></svg>